<svg width="54" height="55" viewBox="0 0 54 55" fill="none" xmlns="http://www.w3.org/2000/svg">
<path d="M34.7142 35.2143V10.1428H5.78564V35.2143H34.7142ZM34.7142 35.2143H48.2142V25.5714L42.4285 19.7857H34.7142V35.2143ZM19.2856 40.0357C19.2856 42.6985 17.127 44.8571 14.4642 44.8571C11.8014 44.8571 9.64279 42.6985 9.64279 40.0357C9.64279 37.3729 11.8014 35.2143 14.4642 35.2143C17.127 35.2143 19.2856 37.3729 19.2856 40.0357ZM44.3571 40.0357C44.3571 42.6985 42.1984 44.8571 39.5356 44.8571C36.8728 44.8571 34.7142 42.6985 34.7142 40.0357C34.7142 37.3729 36.8728 35.2143 39.5356 35.2143C42.1984 35.2143 44.3571 37.3729 44.3571 40.0357Z" stroke="#333333" stroke-linecap="round" stroke-linejoin="round"/>
<path d="M27.4286 18.5L19.5714 26.3571L16 22.7857" stroke="#333333" stroke-linecap="round" stroke-linejoin="round"/>
</svg>
