<svg width="54" height="54" viewBox="0 0 54 54" fill="none" xmlns="http://www.w3.org/2000/svg">
<path d="M46.2855 11.0646C46.2855 13.1075 40.4017 14.7419 33.1287 14.7419C25.8557 14.7419 19.9719 13.1075 19.9719 11.0646C19.9719 9.02159 25.8557 7.38721 33.1287 7.38721C40.4017 7.38721 46.2855 9.02159 46.2855 11.0646Z" stroke="#333333" stroke-miterlimit="10" stroke-linecap="round"/>
<path d="M46.2856 17.6021C46.2856 19.645 40.4019 21.2794 33.1289 21.2794C31.7396 21.2794 30.4321 21.1977 29.1246 21.116C28.9612 21.116 21.1161 20.1353 21.0344 20.0536" stroke="#333333" stroke-miterlimit="10" stroke-linecap="round"/>
<path d="M46.2855 24.7122C46.2855 26.6734 40.7286 28.3078 33.7825 28.3895" stroke="#333333" stroke-miterlimit="10" stroke-linecap="round"/>
<path d="M46.2856 31.821C46.2856 33.7823 40.8105 35.335 33.946 35.4984" stroke="#333333" stroke-miterlimit="10" stroke-linecap="round"/>
<path d="M19.9719 12.2083V20.5436" stroke="#333333" stroke-miterlimit="10" stroke-linecap="round"/>
<path d="M46.2854 12.2083V31.7391" stroke="#333333" stroke-miterlimit="10" stroke-linecap="round"/>
<path d="M33.6191 33.6193C33.6191 40.8106 27.817 46.6127 20.6257 46.6127C13.5162 46.6127 7.71411 40.8106 7.71411 33.6193C7.71411 26.428 13.5162 20.626 20.7075 20.626C27.817 20.7077 33.6191 26.5098 33.6191 33.6193Z" stroke="#333333" stroke-miterlimit="10" stroke-linecap="round"/>
<path d="M17.4751 38.8729L17.6272 38.4419C18.3717 38.8244 19.304 39.104 20.2989 39.104C21.1237 39.104 21.8551 38.8748 22.3909 38.441C22.934 38.0013 23.2505 37.3697 23.2505 36.6427C23.2505 35.9294 22.9872 35.3551 22.5116 34.8795C22.0563 34.4243 21.4148 34.0673 20.6654 33.7342L20.6537 33.7291L20.6418 33.7245C19.5942 33.3215 18.8346 32.9215 18.3374 32.442C17.8638 31.9853 17.6119 31.4413 17.6119 30.6772C17.6119 29.2607 18.6025 28.1968 20.3029 27.9011L20.7172 27.829V27.4085V25.8655H20.943V27.3267V27.8267H21.443C22.3443 27.8267 22.9812 28.017 23.4465 28.2688L23.2974 28.6666C22.7823 28.4381 22.0366 28.216 21.0344 28.216C20.1601 28.216 19.4928 28.4712 19.0417 28.9086C18.5936 29.3431 18.4097 29.9089 18.4097 30.4321C18.4097 31.1139 18.6611 31.64 19.1783 32.0797C19.6548 32.4847 20.3578 32.8164 21.2509 33.1818C22.2898 33.6216 23.0042 34.0563 23.461 34.5658C23.9001 35.0556 24.13 35.6472 24.13 36.4793C24.13 37.8529 23.1796 39.1273 21.364 39.4178L20.943 39.4851V39.9115V41.5362H20.472V39.9932V39.4932H19.972C19.0861 39.4932 18.1404 39.2208 17.4751 38.8729Z" stroke="#333333"/>
</svg>
