<svg width="54" height="55" viewBox="0 0 54 55" fill="none" xmlns="http://www.w3.org/2000/svg">
<path d="M23.2866 40.7681H31.2976" stroke="#333333" stroke-miterlimit="10"/>
<path d="M7.0144 40.7681H13.7737" stroke="#333333" stroke-miterlimit="10" stroke-linecap="round" stroke-linejoin="round"/>
<path d="M40.7273 40.7682H41.979C44.7328 40.7682 46.9859 38.5151 46.9859 35.7613V26.4986H28.2936V10.1428H12.0212" stroke="#333333" stroke-miterlimit="10" stroke-linecap="round" stroke-linejoin="round"/>
<path d="M27.459 12.4792H37.0555L46.9858 26.5819" stroke="#333333" stroke-miterlimit="10" stroke-linejoin="round"/>
<path d="M23.2865 40.1005C23.2865 42.6874 21.2003 44.857 18.53 44.857C15.8596 44.857 13.7734 42.7709 13.7734 40.1005C13.7734 37.5136 15.8596 35.344 18.53 35.344C21.2003 35.344 23.2865 37.5136 23.2865 40.1005Z" stroke="#333333" stroke-miterlimit="10" stroke-linejoin="round"/>
<path d="M40.7272 40.1005C40.7272 42.6874 38.641 44.857 35.9706 44.857C33.3838 44.857 31.2141 42.7709 31.2141 40.1005C31.2141 37.5136 33.3003 35.344 35.9706 35.344C38.641 35.344 40.7272 37.5136 40.7272 40.1005Z" stroke="#333333" stroke-miterlimit="10" stroke-linejoin="round"/>
<path d="M11.4368 16.5681H21.8677" stroke="#333333" stroke-miterlimit="10" stroke-linecap="round" stroke-linejoin="round"/>
<path d="M8.8501 23.1609H19.2811" stroke="#333333" stroke-miterlimit="10" stroke-linecap="round" stroke-linejoin="round"/>
<path d="M7.3479 29.7532H17.7789" stroke="#828E99" stroke-miterlimit="10" stroke-linecap="round" stroke-linejoin="round"/>
</svg>
